<svg width="43" height="43" viewBox="0 0 43 43" fill="none" xmlns="http://www.w3.org/2000/svg">
<path d="M8.95833 37.625C7.97292 37.625 7.12904 37.2744 6.42671 36.5733C5.72557 35.871 5.375 35.0271 5.375 34.0417V26.875H8.95833V34.0417H34.0417V8.95833H8.95833V16.125H5.375V8.95833C5.375 7.97292 5.72557 7.12904 6.42671 6.42671C7.12904 5.72557 7.97292 5.375 8.95833 5.375H34.0417C35.0271 5.375 35.871 5.72557 36.5733 6.42671C37.2744 7.12904 37.625 7.97292 37.625 8.95833V34.0417C37.625 35.0271 37.2744 35.871 36.5733 36.5733C35.871 37.2744 35.0271 37.625 34.0417 37.625H8.95833ZM18.8125 30.4583L16.3042 27.8604L20.8729 23.2917H5.375V19.7083H20.8729L16.3042 15.1396L18.8125 12.5417L27.7708 21.5L18.8125 30.4583Z" fill="black"/>
</svg>
