<svg width="128" height="128" viewBox="0 0 128 128" fill="none" xmlns="http://www.w3.org/2000/svg">
<path d="M26.6667 126.4C23.7333 126.4 21.2213 125.355 19.1307 123.264C17.0436 121.177 16 118.667 16 115.733V41.0667C16 38.1333 17.0436 35.6213 19.1307 33.5307C21.2213 31.4436 23.7333 30.4 26.6667 30.4H74.2667L63.6 41.0667H26.6667V115.733H101.333V78.6667L112 68V115.733C112 118.667 110.956 121.177 108.869 123.264C106.779 125.355 104.267 126.4 101.333 126.4H26.6667ZM86.2667 33.4667L93.8667 40.9333L58.6667 76.1333V83.7333H66.1333L101.467 48.4L109.067 55.8667L70.6667 94.4H48V71.7333L86.2667 33.4667ZM109.067 55.8667L86.2667 33.4667L99.6 20.1333C101.733 18 104.29 16.9333 107.269 16.9333C110.245 16.9333 112.756 18 114.8 20.1333L122.267 27.7333C124.311 29.7778 125.333 32.2667 125.333 35.2C125.333 38.1333 124.311 40.6222 122.267 42.6667L109.067 55.8667Z" fill="white"/>
</svg>
