<svg width="25" height="25" viewBox="0 0 30 30" fill="none" xmlns="http://www.w3.org/2000/svg">
<path d="M15 27.5C13.2917 27.5 11.6771 27.1717 10.1562 26.515C8.63542 25.8592 7.3075 24.9633 6.1725 23.8275C5.03667 22.6925 4.14083 21.3646 3.485 19.8437C2.82833 18.3229 2.5 16.7083 2.5 15C2.5 13.2708 2.82833 11.6512 3.485 10.1412C4.14083 8.63042 5.03667 7.3075 6.1725 6.1725C7.3075 5.03667 8.63542 4.14042 10.1562 3.48375C11.6771 2.82792 13.2917 2.5 15 2.5C16.7292 2.5 18.3488 2.82792 19.8587 3.48375C21.3696 4.14042 22.6925 5.03667 23.8275 6.1725C24.9633 7.3075 25.8592 8.63042 26.515 10.1412C27.1717 11.6512 27.5 13.2708 27.5 15V16.8125C27.5 18.0417 27.0783 19.0883 26.235 19.9525C25.3908 20.8175 24.3542 21.25 23.125 21.25C22.375 21.25 21.6771 21.0833 21.0312 20.75C20.3854 20.4167 19.8542 19.9792 19.4375 19.4375C18.875 20 18.2137 20.4429 17.4538 20.7662C16.6929 21.0887 15.875 21.25 15 21.25C13.2708 21.25 11.7971 20.6404 10.5788 19.4212C9.35958 18.2029 8.75 16.7292 8.75 15C8.75 13.2708 9.35958 11.7967 10.5788 10.5775C11.7971 9.35917 13.2708 8.75 15 8.75C16.7292 8.75 18.2033 9.35917 19.4225 10.5775C20.6408 11.7967 21.25 13.2708 21.25 15V16.8125C21.25 17.4167 21.4375 17.8904 21.8125 18.2337C22.1875 18.5779 22.625 18.75 23.125 18.75C23.625 18.75 24.0625 18.5779 24.4375 18.2337C24.8125 17.8904 25 17.4167 25 16.8125V15C25 12.2708 24.0154 9.92167 22.0462 7.9525C20.0779 5.98417 17.7292 5 15 5C12.2708 5 9.92167 5.98417 7.9525 7.9525C5.98417 9.92167 5 12.2708 5 15C5 17.7292 5.98417 20.0779 7.9525 22.0462C9.92167 24.0154 12.2708 25 15 25H21.25V27.5H15ZM15 18.75C16.0417 18.75 16.9271 18.3854 17.6562 17.6562C18.3854 16.9271 18.75 16.0417 18.75 15C18.75 13.9583 18.3854 13.0729 17.6562 12.3437C16.9271 11.6146 16.0417 11.25 15 11.25C13.9583 11.25 13.0729 11.6146 12.3438 12.3437C11.6146 13.0729 11.25 13.9583 11.25 15C11.25 16.0417 11.6146 16.9271 12.3438 17.6562C13.0729 18.3854 13.9583 18.75 15 18.75Z" fill="#909090"/>
</svg>
