<svg width="26" height="26" viewBox="0 0 26 26" fill="none" xmlns="http://www.w3.org/2000/svg">
<path d="M23.9687 10.725V10.6438L20.8812 2.60001C20.8 2.43751 20.7187 2.27501 20.5562 2.19376C20.2312 2.03126 19.9062 2.03125 19.5812 2.275C19.5 2.35625 19.3375 2.43751 19.3375 2.60001L17.225 9.01875H8.77499L6.66249 2.60001C6.66249 2.43751 6.49999 2.35626 6.41874 2.19376C6.09374 2.03126 5.76874 1.95001 5.44374 2.19376C5.28124 2.27501 5.19999 2.35625 5.11874 2.51875L2.03124 10.5625V10.6438C1.13749 13 1.86874 15.7625 3.89999 17.3063L8.61249 20.8L10.9687 22.5875L12.35 23.6438C12.675 23.8875 13.1625 23.8875 13.4875 23.6438L14.8687 22.5875L17.225 20.8L21.9375 17.225C24.1312 15.8438 24.9437 13.0813 23.9687 10.725Z" fill="#E24329"/>
<path d="M23.9688 10.725V10.6438C22.425 10.9688 21.0437 11.6188 19.825 12.5125L13 17.6313C15.3563 19.4188 17.3062 20.8813 17.3062 20.8813L22.0188 17.3063C24.1313 15.8438 24.9438 13.0813 23.9688 10.725Z" fill="#FC6D26"/>
<path d="M8.69376 20.9625L11.05 22.75L12.4313 23.8062C12.7563 24.05 13.2438 24.05 13.5688 23.8062L14.95 22.75L17.3063 20.9625C17.3063 20.9625 15.275 19.4187 13 17.7125C10.6438 19.4187 8.69376 20.9625 8.69376 20.9625Z" fill="#FCA326"/>
<path d="M6.17499 12.5125C4.95624 11.6188 3.49374 10.9688 2.03124 10.6438V10.725C1.13749 13.0813 1.86874 15.8438 3.89999 17.3875L8.61249 20.8813C8.61249 20.8813 10.6437 19.3375 12.9187 17.6313L6.17499 12.5125Z" fill="#FC6D26"/>
</svg>
