<svg width="61" height="47" viewBox="0 0 61 47" fill="none" xmlns="http://www.w3.org/2000/svg">
<path d="M44.225 23.5C45.2263 23.5 46.2179 23.2829 47.143 22.8611C48.0681 22.4394 48.9086 21.8211 49.6167 21.0418C50.3247 20.2624 50.8864 19.3372 51.2696 18.319C51.6528 17.3007 51.85 16.2093 51.85 15.1071C51.85 12.8812 51.0467 10.7465 49.6167 9.1725C48.1867 7.59853 46.2473 6.71429 44.225 6.71429C42.2027 6.71429 40.2633 7.59853 38.8333 9.1725C37.4033 10.7465 36.6 12.8812 36.6 15.1071C36.6 16.2093 36.7972 17.3007 37.1804 18.319C37.5636 19.3372 38.1253 20.2624 38.8333 21.0418C40.2633 22.6158 42.2027 23.5 44.225 23.5ZM21.35 20.1429C23.7767 20.1429 26.1041 19.0818 27.82 17.193C29.536 15.3042 30.5 12.7425 30.5 10.0714C30.5 7.40032 29.536 4.83861 27.82 2.94985C26.1041 1.06109 23.7767 0 21.35 0C18.9233 0 16.5959 1.06109 14.88 2.94985C13.164 4.83861 12.2 7.40032 12.2 10.0714C12.2 12.7425 13.164 15.3042 14.88 17.193C16.5959 19.0818 18.9233 20.1429 21.35 20.1429ZM44.225 30.2143C38.6435 30.2143 27.45 33.3029 27.45 39.4464V47H61V39.4464C61 33.3029 49.8065 30.2143 44.225 30.2143ZM21.35 26.8571C14.2435 26.8571 0 30.785 0 38.6071V47H21.35V39.4464C21.35 36.5929 22.3565 31.5907 28.5785 27.7971C25.925 27.1929 23.363 26.8571 21.35 26.8571Z" fill="#9F9F9F"/>
</svg>
