<svg width="31" height="32" viewBox="0 0 31 32" fill="none" xmlns="http://www.w3.org/2000/svg">
<path d="M15.3685 17C14.9063 17 14.519 16.8434 14.2069 16.5301C13.8936 16.2179 13.737 15.8307 13.737 15.3684V2.31578C13.737 1.8535 13.8936 1.46573 14.2069 1.15247C14.519 0.840292 14.9063 0.684204 15.3685 0.684204C15.8308 0.684204 16.2186 0.840292 16.5319 1.15247C16.844 1.46573 17.0001 1.8535 17.0001 2.31578V15.3684C17.0001 15.8307 16.844 16.2179 16.5319 16.5301C16.2186 16.8434 15.8308 17 15.3685 17ZM15.3685 31.6842C13.3291 31.6842 11.419 31.297 9.63843 30.5225C7.85675 29.747 6.30675 28.6995 4.98843 27.3801C3.66903 26.0618 2.62155 24.5118 1.84601 22.7301C1.07155 20.9495 0.684326 19.0395 0.684326 17C0.684326 15.2868 0.963326 13.6487 1.52133 12.0857C2.07824 10.5215 2.85976 9.11403 3.8659 7.86315C4.16503 7.48245 4.54573 7.29862 5.00801 7.31168C5.47029 7.32582 5.87819 7.50964 6.23169 7.86315C6.53082 8.16227 6.66678 8.52938 6.63959 8.96447C6.6124 9.39955 6.46283 9.80745 6.19091 10.1882C5.48389 11.1399 4.9335 12.1934 4.53975 13.3485C4.1449 14.5048 3.94748 15.7219 3.94748 17C3.94748 20.1816 5.05587 22.8802 7.27264 25.0959C9.48833 27.3127 12.187 28.421 15.3685 28.421C18.5501 28.421 21.2487 27.3127 23.4644 25.0959C25.6812 22.8802 26.7896 20.1816 26.7896 17C26.7896 15.7219 26.5927 14.4912 26.199 13.3077C25.8041 12.1254 25.2396 11.0583 24.5054 10.1066C24.2334 9.75306 24.0839 9.36529 24.0567 8.94326C24.0295 8.52231 24.1655 8.16227 24.4646 7.86315C24.7909 7.53684 25.1852 7.36661 25.6475 7.35247C26.1098 7.33941 26.4905 7.50964 26.7896 7.86315C27.8229 9.11403 28.6251 10.5215 29.1962 12.0857C29.7672 13.6487 30.0527 15.2868 30.0527 17C30.0527 19.0395 29.6655 20.9495 28.8911 22.7301C28.1155 24.5118 27.0686 26.0618 25.7503 27.3801C24.4309 28.6995 22.8809 29.747 21.1003 30.5225C19.3186 31.297 17.408 31.6842 15.3685 31.6842Z" fill="#D90429"/>
</svg>
