<svg width="25" height="25" viewBox="0 0 30 30" fill="none" xmlns="http://www.w3.org/2000/svg">
<path d="M2.5 23.75V21.25H27.5V23.75H2.5ZM3.9375 16.1875L2.3125 15.25L3.375 13.375H1.25V11.5H3.375L2.3125 9.6875L3.9375 8.75L5 10.5625L6.0625 8.75L7.6875 9.6875L6.625 11.5H8.75V13.375H6.625L7.6875 15.25L6.0625 16.1875L5 14.3125L3.9375 16.1875ZM13.9375 16.1875L12.3125 15.25L13.375 13.375H11.25V11.5H13.375L12.3125 9.6875L13.9375 8.75L15 10.5625L16.0625 8.75L17.6875 9.6875L16.625 11.5H18.75V13.375H16.625L17.6875 15.25L16.0625 16.1875L15 14.3125L13.9375 16.1875ZM23.9375 16.1875L22.3125 15.25L23.375 13.375H21.25V11.5H23.375L22.3125 9.6875L23.9375 8.75L25 10.5625L26.0625 8.75L27.6875 9.6875L26.625 11.5H28.75V13.375H26.625L27.6875 15.25L26.0625 16.1875L25 14.3125L23.9375 16.1875Z" fill="#909090"/>
</svg>
