<svg width="26" height="21" viewBox="0 0 26 21" fill="none" xmlns="http://www.w3.org/2000/svg">
<g clip-path="url(#clip0_9_40)">
<path d="M26 2.55718C25.0264 2.98389 23.9937 3.26398 22.9363 3.38814C24.0377 2.73503 24.8834 1.7008 25.2816 0.468534C24.2346 1.08325 23.089 1.51635 21.8944 1.74913C20.9214 0.723548 19.5351 0.0825958 18.0008 0.0825958C15.0549 0.0825958 12.6665 2.44545 12.6665 5.35973C12.6665 5.7734 12.7137 6.17611 12.8046 6.56245C8.37139 6.3423 4.44092 4.2414 1.80995 1.0486C1.35088 1.82801 1.08784 2.73462 1.08784 3.70163C1.08784 5.53255 2.02962 7.14774 3.46084 8.09415C2.61376 8.0679 1.78532 7.84155 1.04467 7.434C1.04437 7.45611 1.04437 7.47821 1.04437 7.50042C1.04437 10.0573 2.88305 12.1903 5.32319 12.6751C4.5377 12.8864 3.71376 12.9173 2.91434 12.7655C3.59308 14.8621 5.56309 16.3877 7.8972 16.4304C6.07161 17.8458 3.77152 18.6895 1.27248 18.6895C0.841852 18.6895 0.41732 18.6645 0 18.6157C2.36062 20.1131 5.16445 20.9867 8.1768 20.9867C17.9884 20.9867 23.3537 12.9453 23.3537 5.97174C23.3537 5.74285 23.3486 5.51527 23.3383 5.28899C24.3825 4.54212 25.2839 3.61704 26 2.55718Z" fill="#55ACEE"/>
</g>
<defs>
<clipPath id="clip0_9_40">
<rect width="26" height="21" fill="white"/>
</clipPath>
</defs>
</svg>
