<svg width="47" height="47" viewBox="0 0 47 47" fill="none" xmlns="http://www.w3.org/2000/svg">
<path d="M23.5 0.0769043C26.6112 0.0769043 29.595 1.31282 31.7949 3.51277C33.9948 5.71271 35.2308 8.69648 35.2308 11.8077C35.2308 14.9189 33.9948 17.9026 31.7949 20.1026C29.595 22.3025 26.6112 23.5384 23.5 23.5384C20.3888 23.5384 17.405 22.3025 15.2051 20.1026C13.0051 17.9026 11.7692 14.9189 11.7692 11.8077C11.7692 8.69648 13.0051 5.71271 15.2051 3.51277C17.405 1.31282 20.3888 0.0769043 23.5 0.0769043ZM23.5 29.4038C36.4625 29.4038 46.9615 34.6533 46.9615 41.1346V47H0.0384521V41.1346C0.0384521 34.6533 10.5375 29.4038 23.5 29.4038Z" fill="#9F9F9F"/>
</svg>
