<svg width="43" height="43" viewBox="0 0 43 43" fill="none" xmlns="http://www.w3.org/2000/svg">
<path d="M24.1875 13.4375C24.1875 13.0811 24.3291 12.7393 24.5811 12.4873C24.8331 12.2353 25.1748 12.0938 25.5312 12.0938H41.6562C42.0126 12.0938 42.3544 12.2353 42.6064 12.4873C42.8584 12.7393 43 13.0811 43 13.4375C43 13.7939 42.8584 14.1357 42.6064 14.3877C42.3544 14.6397 42.0126 14.7813 41.6562 14.7813H25.5312C25.1748 14.7813 24.8331 14.6397 24.5811 14.3877C24.3291 14.1357 24.1875 13.7939 24.1875 13.4375ZM41.6562 20.1563H25.5312C25.1748 20.1563 24.8331 20.2978 24.5811 20.5498C24.3291 20.8018 24.1875 21.1436 24.1875 21.5C24.1875 21.8564 24.3291 22.1982 24.5811 22.4502C24.8331 22.7022 25.1748 22.8438 25.5312 22.8438H41.6562C42.0126 22.8438 42.3544 22.7022 42.6064 22.4502C42.8584 22.1982 43 21.8564 43 21.5C43 21.1436 42.8584 20.8018 42.6064 20.5498C42.3544 20.2978 42.0126 20.1563 41.6562 20.1563ZM41.6562 28.2188H29.5625C29.2061 28.2188 28.8643 28.3603 28.6123 28.6123C28.3603 28.8643 28.2187 29.2061 28.2187 29.5625C28.2187 29.9189 28.3603 30.2607 28.6123 30.5127C28.8643 30.7647 29.2061 30.9063 29.5625 30.9063H41.6562C42.0126 30.9063 42.3544 30.7647 42.6064 30.5127C42.8584 30.2607 43 29.9189 43 29.5625C43 29.2061 42.8584 28.8643 42.6064 28.6123C42.3544 28.3603 42.0126 28.2188 41.6562 28.2188ZM25.1449 31.9141C25.1903 32.084 25.2015 32.2612 25.1778 32.4354C25.1541 32.6096 25.0961 32.7774 25.007 32.929C24.9179 33.0806 24.7996 33.213 24.6589 33.3184C24.5182 33.4239 24.358 33.5004 24.1875 33.5434L23.8515 33.5938C23.5528 33.5929 23.2627 33.4938 23.0259 33.3116C22.7891 33.1295 22.6188 32.8745 22.5414 32.586C22.0176 30.5701 20.8395 28.7851 19.1918 27.5109C17.5442 26.2367 15.5203 25.5454 13.4375 25.5454C11.3547 25.5454 9.33073 26.2367 7.68312 27.5109C6.03551 28.7851 4.85741 30.5701 4.33357 32.586C4.28868 32.7571 4.21044 32.9177 4.10332 33.0585C3.99621 33.1993 3.86234 33.3176 3.7094 33.4066C3.55645 33.4955 3.38745 33.5534 3.21208 33.5769C3.03671 33.6004 2.85844 33.589 2.68748 33.5434C2.51699 33.5004 2.35674 33.4239 2.21605 33.3184C2.07537 33.213 1.95704 33.0806 1.86796 32.929C1.77888 32.7774 1.72081 32.6096 1.69714 32.4354C1.67347 32.2612 1.68466 32.084 1.73006 31.9141C2.18534 30.145 3.03543 28.5021 4.21654 27.1087C5.39764 25.7152 6.87906 24.6074 8.54959 23.8684C7.20814 22.8458 6.22119 21.4282 5.72772 19.8152C5.23425 18.2022 5.2591 16.4751 5.79877 14.8769C6.33844 13.2788 7.36576 11.8902 8.73608 10.9066C10.1064 9.92302 11.7507 9.39398 13.4375 9.39398C15.1243 9.39398 16.7686 9.92302 18.1389 10.9066C19.5092 11.8902 20.5365 13.2788 21.0762 14.8769C21.6159 16.4751 21.6407 18.2022 21.1472 19.8152C20.6538 21.4282 19.6668 22.8458 18.3254 23.8684C19.9959 24.6074 21.4773 25.7152 22.6584 27.1087C23.8395 28.5021 24.6896 30.145 25.1449 31.9141ZM13.4375 22.8438C14.5006 22.8438 15.5398 22.5285 16.4237 21.9379C17.3076 21.3473 17.9965 20.5078 18.4033 19.5257C18.8102 18.5435 18.9166 17.4628 18.7092 16.4202C18.5018 15.3775 17.9899 14.4198 17.2382 13.6681C16.4865 12.9164 15.5287 12.4044 14.4861 12.197C13.4434 11.9897 12.3627 12.0961 11.3806 12.5029C10.3984 12.9097 9.55894 13.5987 8.96833 14.4826C8.37772 15.3665 8.06248 16.4057 8.06248 17.4688C8.06691 18.8929 8.63463 20.2575 9.64168 21.2646C10.6487 22.2716 12.0133 22.8393 13.4375 22.8438Z" fill="#2E2E2E"/>
</svg>
