<svg width="121" height="108" viewBox="0 0 121 108" fill="none" xmlns="http://www.w3.org/2000/svg">
<path d="M13.1237 107.125H107.876C117.565 107.125 123.605 96.6179 118.761 88.25L71.3845 6.39541C66.5399 -1.9725 54.4599 -1.9725 49.6154 6.39541L2.23912 88.25C-2.60547 96.6179 3.43453 107.125 13.1237 107.125ZM60.4999 63.0833C57.0395 63.0833 54.2083 60.2521 54.2083 56.7917V44.2083C54.2083 40.7479 57.0395 37.9167 60.4999 37.9167C63.9604 37.9167 66.7916 40.7479 66.7916 44.2083V56.7917C66.7916 60.2521 63.9604 63.0833 60.4999 63.0833ZM66.7916 88.25H54.2083V75.6667H66.7916V88.25Z" fill="#F24E1E"/>
</svg>
